<svg width="330" height="116" viewBox="0 0 330 116" fill="none" xmlns="http://www.w3.org/2000/svg">
<path d="M157.111 9.0604C202.387 1.64183 244.233 0.634458 275.261 4.9568C290.787 7.11969 303.488 10.6017 312.535 15.2023C321.628 19.8261 326.645 25.368 327.648 31.4865C328.651 37.605 325.664 44.4584 318.522 51.7424C311.416 58.9896 300.491 66.3428 286.467 73.3476C258.441 87.346 218.461 99.7457 173.185 107.164C127.909 114.583 86.064 115.59 55.0361 111.268C39.5096 109.105 26.8082 105.623 17.761 101.022C8.66819 96.3986 3.65128 90.8565 2.64875 84.7381C1.64624 78.6196 4.63215 71.7663 11.7739 64.4824C18.8797 57.235 29.8058 49.8819 43.8301 42.877C71.8562 28.8786 111.835 16.479 157.111 9.0604Z" stroke="#00AE81" stroke-width="4"/>
</svg>
