<svg width="495" height="106" viewBox="0 0 495 106" fill="none" xmlns="http://www.w3.org/2000/svg">
<path d="M249.632 3.00898C317.726 5.49365 379.105 13.5175 423.281 24.4568C445.385 29.9305 463.076 36.1089 475.13 42.6301C481.161 45.8927 485.68 49.1877 488.637 52.4406C491.587 55.6863 492.859 58.7459 492.754 61.6193C492.649 64.4928 491.158 67.4515 487.979 70.4735C484.793 73.5023 480.046 76.4592 473.793 79.2736C461.295 84.8989 443.201 89.7716 420.757 93.6198C375.902 101.31 314.101 104.84 246.007 102.355C177.913 99.8703 116.534 91.8464 72.358 80.9071C50.254 75.4335 32.5621 69.2551 20.5077 62.7339C14.477 59.4713 9.95881 56.1762 7.00198 52.9233C4.05169 49.6776 2.7789 46.6181 2.88375 43.7446C2.9886 40.8711 4.48099 37.9125 7.65998 34.8904C10.846 31.8617 15.5924 28.9046 21.8448 26.0903C34.3424 20.4649 52.4375 15.5924 74.8817 11.7442C119.737 4.05353 181.538 0.524318 249.632 3.00898Z" stroke="#00AE81" stroke-width="4"/>
</svg>
